<svg id="Layer_1" data-name="Layer 1" xmlns="http://www.w3.org/2000/svg" xmlns:xlink="http://www.w3.org/1999/xlink" viewBox="0 0 30 30"><defs><linearGradient id="linear-gradient" x1="9.25" y1="23.19" x2="20.87" y2="7.43" gradientUnits="userSpaceOnUse"><stop offset="0" stop-color="#86c2e5"/><stop offset="0.24" stop-color="#a4b5da"/><stop offset="0.76" stop-color="#f094bd"/><stop offset="0.78" stop-color="#f393bc"/></linearGradient></defs><circle cx="15" cy="15" r="15"/><path d="M23.51,13.47c-2.55-.16-2.64,1.84-4.29,3.29a4.7,4.7,0,0,1-.93.62c-2-2.67-1.84-7.38.26-11.66a13,13,0,0,0-6.36,4.63,20.85,20.85,0,0,1,.33-5.24C6.54,8.6,3.38,15.43,7,20.82s11.39,5.26,15.16.77c2.54-3.06,2.05-6.74,3.59-8.82A2.51,2.51,0,0,0,23.51,13.47ZM22.82,15a.6.6,0,0,1-.59-.6.6.6,0,0,1,1.19,0A.6.6,0,0,1,22.82,15Z" transform="translate(0 -0.06)" style="fill:url(#linear-gradient)"/></svg>