<svg id="Layer_1" data-name="Layer 1" xmlns="http://www.w3.org/2000/svg" xmlns:xlink="http://www.w3.org/1999/xlink" viewBox="0 0 28.11 28.11"><defs><linearGradient id="linear-gradient" x1="7.88" y1="27.34" x2="21.94" y2="2.99" gradientUnits="userSpaceOnUse"><stop offset="0" stop-color="#86c2e5"/><stop offset="0.07" stop-color="#8fbee2"/><stop offset="0.5" stop-color="#c5a7cd"/><stop offset="0.82" stop-color="#e698c1"/><stop offset="1" stop-color="#f393bc"/></linearGradient></defs><path d="M29,15.16A14.07,14.07,0,0,1,14.91,29.22l-.61,0A14.05,14.05,0,1,1,29,15.16Z" transform="translate(-0.86 -1.11)" style="fill:url(#linear-gradient)"/><path d="M22.56,16c-3-.18-3.1,2.16-5,3.85a4.89,4.89,0,0,1-1.09.74c-2.29-3.13-2.16-8.65.3-13.67a15.34,15.34,0,0,0-7.45,5.43,24.88,24.88,0,0,1,.38-6.15c-5,3-8.38,7.93-8.28,12.85A14.07,14.07,0,0,0,14.3,29.2a11,11,0,0,0,6.62-3.69c3-3.59,2.4-7.9,4.21-10.35A3,3,0,0,0,22.56,16Zm-1.16,2a.56.56,0,1,1,.56-.56A.56.56,0,0,1,21.4,17.94Z" transform="translate(-0.86 -1.11)" style="fill:#fff"/></svg>