<svg id="Layer_1" data-name="Layer 1" xmlns="http://www.w3.org/2000/svg" xmlns:xlink="http://www.w3.org/1999/xlink" viewBox="0 0 96.46 28.11"><defs><linearGradient id="linear-gradient" x1="9.26" y1="26.94" x2="20.33" y2="7.77" gradientUnits="userSpaceOnUse"><stop offset="0" stop-color="#86c2e5"/><stop offset="0.04" stop-color="#8ebee2"/><stop offset="0.23" stop-color="#b2afd4"/><stop offset="0.42" stop-color="#cfa3ca"/><stop offset="0.62" stop-color="#e39ac2"/><stop offset="0.81" stop-color="#ef95be"/><stop offset="1" stop-color="#f393bc"/></linearGradient></defs><path d="M30.75,15a14,14,0,0,1-14,14.05h-.61A14.05,14.05,0,1,1,30.75,15Z" transform="translate(-2.64 -0.95)" style="fill:#fff"/><path d="M24.34,15.81c-3-.17-3.09,2.17-5,3.86a5.25,5.25,0,0,1-1.09.74c-2.29-3.14-2.16-8.66.3-13.68a15.42,15.42,0,0,0-7.45,5.44A24.85,24.85,0,0,1,11.46,6C6.41,9,3.08,14,3.18,18.86A14.07,14.07,0,0,0,16.09,29a11,11,0,0,0,6.62-3.7c3-3.58,2.4-7.89,4.21-10.34A3,3,0,0,0,24.34,15.81Zm-1.15,2a.55.55,0,0,1-.55-.56.54.54,0,0,1,.55-.55.55.55,0,0,1,.56.55A.56.56,0,0,1,23.19,17.78Z" transform="translate(-2.64 -0.95)" style="fill:url(#linear-gradient)"/><text transform="translate(32.72 19.59)" style="font-size:14px;fill:#fff;font-family:Inter-Bold, Inter;font-weight:700">New Lark</text></svg>